<?xml version="1.0" encoding="iso-8859-1"?>
<!-- Generator: Adobe Illustrator 19.0.0, SVG Export Plug-In . SVG Version: 6.00 Build 0)  -->
<svg version="1.1" id="Layer_1" xmlns="http://www.w3.org/2000/svg" xmlns:xlink="http://www.w3.org/1999/xlink" x="0px" y="0px"
	 viewBox="0 0 512 512" style="enable-background:new 0 0 512 512;" xml:space="preserve">
<circle style="fill:#CCCCCC;" cx="256" cy="256" r="245.801"/>
<g>
	<ellipse style="fill:#333333;" cx="149.571" cy="220.813" rx="64.734" ry="36.207"/>
	<ellipse style="fill:#333333;" cx="362.429" cy="220.813" rx="64.734" ry="36.207"/>
</g>
<path style="fill:#C1272D;" d="M256,499.251L256,499.251c-30.136,0-54.566-24.43-54.566-54.566V329.434h109.131v115.251
	C310.566,474.821,286.136,499.251,256,499.251z"/>
<g>
	<circle style="fill:#FBB03B;" cx="196.845" cy="80.574" r="17.339"/>
	<circle style="fill:#FBB03B;" cx="315.155" cy="80.574" r="17.339"/>
</g>
<path d="M437.019,74.98C388.667,26.628,324.381,0,256,0S123.333,26.628,74.981,74.98c-18.23,18.23-33.368,38.726-45.159,60.852
	c-0.034,0.06-0.063,0.123-0.096,0.185C10.306,172.53,0,213.471,0,256c0,68.38,26.628,132.667,74.981,181.02
	C123.333,485.372,187.619,512,256,512s132.667-26.628,181.019-74.98C485.372,388.667,512,324.38,512,256
	S485.372,123.333,437.019,74.98z M256,20.398c83.833,0,157.568,44.02,199.335,110.151H56.664
	C98.433,64.418,172.167,20.398,256,20.398z M29.029,319.235c-5.617-20.131-8.631-41.337-8.631-63.235
	c0-37.728,8.928-73.405,24.761-105.052h200.642v115.251h-15.299c-5.632,0-10.199,4.566-10.199,10.199s4.567,10.199,10.199,10.199
	h50.996c5.632,0,10.199-4.566,10.199-10.199s-4.567-10.199-10.199-10.199h-15.299V150.948h200.642
	c15.832,31.647,24.761,67.324,24.761,105.052c0,21.898-3.014,43.104-8.63,63.235H29.029z M300.367,444.685
	c0,24.464-19.903,44.367-44.367,44.367s-44.367-19.903-44.367-44.367V339.633h34.167v41.817c0,5.633,4.567,10.199,10.199,10.199
	c5.632,0,10.199-4.566,10.199-10.199v-41.817h34.167V444.685z M35.75,339.633h155.485v105.052c0,15.855,5.736,30.39,15.23,41.66
	C127.949,469.478,63.844,413.373,35.75,339.633z M305.534,486.345c9.494-11.27,15.23-25.805,15.23-41.66V339.633H476.25
	C448.156,413.373,384.051,469.478,305.534,486.345z"/>
<path d="M149.572,267.219c42.019,0,74.934-20.384,74.934-46.406s-32.914-46.406-74.934-46.406s-74.934,20.384-74.934,46.406
	S107.554,267.219,149.572,267.219z M149.572,194.805c31.213,0,54.535,13.731,54.535,26.008c0,12.277-23.323,26.008-54.535,26.008
	s-54.535-13.731-54.535-26.008C95.037,208.536,118.361,194.805,149.572,194.805z"/>
<path d="M362.428,267.219c42.019,0,74.934-20.384,74.934-46.406s-32.914-46.406-74.934-46.406s-74.934,20.384-74.934,46.406
	S320.408,267.219,362.428,267.219z M362.428,194.805c31.213,0,54.535,13.731,54.535,26.008c0,12.277-23.323,26.008-54.535,26.008
	s-54.535-13.731-54.535-26.008C307.893,208.536,331.215,194.805,362.428,194.805z"/>
<path d="M196.845,108.112c15.185,0,27.538-12.353,27.538-27.538s-12.353-27.538-27.538-27.538
	c-15.185,0-27.538,12.353-27.538,27.538S181.66,108.112,196.845,108.112z M196.845,73.434c3.936,0,7.139,3.203,7.139,7.139
	s-3.204,7.139-7.139,7.139c-3.936,0-7.139-3.203-7.139-7.139S192.909,73.434,196.845,73.434z"/>
<path d="M315.155,108.112c15.185,0,27.538-12.353,27.538-27.538s-12.353-27.538-27.538-27.538s-27.538,12.353-27.538,27.538
	S299.971,108.112,315.155,108.112z M315.155,73.434c3.936,0,7.139,3.203,7.139,7.139s-3.204,7.139-7.139,7.139
	s-7.139-3.203-7.139-7.139S311.22,73.434,315.155,73.434z"/>
<path d="M256,403.888c-5.632,0-10.199,4.566-10.199,10.199v1.02c0,5.633,4.567,10.199,10.199,10.199
	c5.632,0,10.199-4.566,10.199-10.199v-1.02C266.199,408.455,261.632,403.888,256,403.888z"/>
<path d="M417.147,351.873h-73.434c-5.632,0-10.199,4.566-10.199,10.199s4.567,10.199,10.199,10.199h73.434
	c5.632,0,10.199-4.566,10.199-10.199S422.779,351.873,417.147,351.873z"/>
<path d="M168.287,351.873H94.853c-5.632,0-10.199,4.566-10.199,10.199s4.567,10.199,10.199,10.199h73.434
	c5.632,0,10.199-4.566,10.199-10.199S173.919,351.873,168.287,351.873z"/>
<g>
</g>
<g>
</g>
<g>
</g>
<g>
</g>
<g>
</g>
<g>
</g>
<g>
</g>
<g>
</g>
<g>
</g>
<g>
</g>
<g>
</g>
<g>
</g>
<g>
</g>
<g>
</g>
<g>
</g>
</svg>
