<?xml version="1.0" encoding="iso-8859-1"?>
<!-- Generator: Adobe Illustrator 18.0.0, SVG Export Plug-In . SVG Version: 6.00 Build 0)  -->
<!DOCTYPE svg PUBLIC "-//W3C//DTD SVG 1.1//EN" "http://www.w3.org/Graphics/SVG/1.1/DTD/svg11.dtd">
<svg version="1.1" id="Capa_1" xmlns="http://www.w3.org/2000/svg" xmlns:xlink="http://www.w3.org/1999/xlink" x="0px" y="0px"
	 viewBox="0 0 300 300" style="enable-background:new 0 0 300 300;" xml:space="preserve">
<path d="M290,192.5h-5.556v-25c0-5.522-4.478-10-10-10h-7.778v-25c0-5.522-4.478-10-10-10h-11.332v-25c0-5.522-4.478-10-10-10
	h-12.955v-25c0-5.522-4.478-10-10-10H87.621c-5.522,0-10,4.478-10,10v25H64.666c-5.522,0-10,4.478-10,10v25H43.334
	c-5.522,0-10,4.478-10,10v25h-7.778c-5.522,0-10,4.478-10,10v25H10c-5.522,0-10,4.478-10,10v35c0,5.522,4.478,10,10,10h280
	c5.522,0,10-4.478,10-10v-35C300,196.978,295.522,192.5,290,192.5z M264.444,177.5v15h-45.525l-6.697-15H264.444z M212.361,226.871
	H87.639L140.932,107.5h18.137L212.361,226.871z M246.666,142.5v15h-43.373l-6.697-15H246.666z M225.334,107.5v15h-37.666l-6.697-15
	H225.334z M97.621,87.5v-15h104.758v15H97.621z M119.029,107.5l-6.697,15H74.666v-15H119.029z M103.404,142.5l-6.697,15H53.334v-15
	H103.404z M87.778,177.5l-6.697,15H35.556v-15H87.778z M72.152,212.5l-6.697,15H20v-15H72.152z M280,212.5v15h-45.455l-6.697-15H280
	z"/>
<g>
</g>
<g>
</g>
<g>
</g>
<g>
</g>
<g>
</g>
<g>
</g>
<g>
</g>
<g>
</g>
<g>
</g>
<g>
</g>
<g>
</g>
<g>
</g>
<g>
</g>
<g>
</g>
<g>
</g>
</svg>
